<?xml version="1.0" encoding="iso-8859-1"?>
<!-- Uploaded to: SVG Repo, www.svgrepo.com, Generator: SVG Repo Mixer Tools -->
<svg version="1.1" id="Layer_1" xmlns="http://www.w3.org/2000/svg" xmlns:xlink="http://www.w3.org/1999/xlink" 
	 viewBox="0 0 496 496" xml:space="preserve">
<path style="fill:#0BAD6B;" d="M56.8,88c0,0-8.8,5.6-8.8,8v234.4c0,28,20.8,53.6,48.8,53.6h302.4c28,0,48.8-26.4,48.8-53.6V96
	c0-2.4-8.8-8-9.6-8H56.8z"/>
<path style="fill:#9DCAD1;" d="M416,160H80c-44,0-80-36-80-80S36,0,80,0h336c44,0,80,36,80,80S460,160,416,160z M80,32
	c-27.2,0-49.6,20.8-49.6,48s22.4,48,49.6,48h336c27.2,0,49.6-20.8,49.6-48S443.2,32,416,32H80z"/>
<g>
	<path style="fill:#83B0B5;" d="M1.6,94.4C8,128,35.2,155.2,69.6,160c-22.4-4.8-39.2-27.2-39.2-51.2c0-5.6,0.8-9.6,2.4-14.4
		c-1.6-4.8-2.4-10.4-2.4-16c0-24,18.4-40.8,40.8-45.6C36.8,37.6,8,60.8,1.6,94.4z"/>
	<path style="fill:#83B0B5;" d="M494.4,94.4c-6.4-33.6-35.2-56.8-68.8-61.6c22.4,4.8,40.8,22.4,40.8,46.4c0,5.6-0.8,11.2-2.4,16
		c1.6,4.8,2.4,8,2.4,13.6c0,24-16.8,45.6-39.2,51.2C460.8,155.2,488,128,494.4,94.4z"/>
</g>
<path style="fill:#6ED62B;" d="M432,448c0,27.2-23.2,48-50.4,48H114.4C87.2,496,64,475.2,64,448V136.8C64,109.6,29.6,88,56.8,88
	h381.6c27.2,0-6.4,21.6-6.4,48.8L432,448L432,448z"/>
<path style="fill:#5BC914;" d="M438.4,88c27.2,0-6.4,21.6-6.4,48.8V448c0,27.2-23.2,48-50.4,48H114.4C87.2,496,64,475.2,64,448"/>
<rect x="64" y="200" style="fill:#80E83D;" width="368" height="24"/>
<polygon style="fill:#6ED62B;" points="295.2,224 432,224 432,200 320,200 "/>
<rect x="64" y="240" style="fill:#80E83D;" width="368" height="24"/>
<polygon style="fill:#6ED62B;" points="258.4,264 432,264 432,240 283.2,240 "/>
</svg>