<?xml version="1.0" encoding="iso-8859-1"?>

<!DOCTYPE svg PUBLIC "-//W3C//DTD SVG 1.1//EN" "http://www.w3.org/Graphics/SVG/1.1/DTD/svg11.dtd">
<!-- Uploaded to: SVG Repo, www.svgrepo.com, Generator: SVG Repo Mixer Tools -->
<svg version="1.1" id="_x34_" xmlns="http://www.w3.org/2000/svg" xmlns:xlink="http://www.w3.org/1999/xlink" 
	 viewBox="0 0 512 512"  xml:space="preserve">
<g>
	<g>
		<g>
			<polygon style="fill:#444F46;" points="95.353,88.169 95.353,205.389 79.812,196.329 0,149.785 0,88.169 			"/>
			<polygon style="fill:#444F46;" points="95.353,233.112 95.353,350.332 79.812,341.272 0,294.728 0,233.112 			"/>
			<polygon style="fill:#444F46;" points="95.353,378.055 95.353,495.275 81.921,487.465 21.32,452.088 0,439.672 0,378.055 			"/>
		</g>
		<g>
			<polygon style="fill:#444F46;" points="387.036,88.169 387.036,149.785 307.223,196.329 291.682,205.389 291.682,88.169 			"/>
			<polygon style="fill:#444F46;" points="387.073,233.1 291.719,233.1 291.719,350.35 387.073,294.742 			"/>
			<polygon style="fill:#444F46;" points="387.073,378.045 291.719,378.045 291.719,495.295 387.073,439.687 			"/>
		</g>
		<path style="fill:#666767;" d="M307.223,86.607v388.676c0,4.295-0.703,8.356-2.109,12.183
			c-4.998,14.291-18.586,24.521-34.596,24.521H116.517c-16.009,0-29.598-10.23-34.596-24.521c-1.406-3.827-2.109-7.888-2.109-12.183
			V86.607c0-20.305,16.4-36.705,36.704-36.705h154.002C290.823,49.902,307.223,66.302,307.223,86.607z"/>
		<rect x="95.316" y="65.414" style="fill:#444F46;" width="196.404" height="431.067"/>
		<circle style="opacity:0.1;fill:#FFFFFF;" cx="195.673" cy="148.286" r="50.877"/>
		<circle style="opacity:0.1;fill:#FFFFFF;" cx="195.673" cy="280.948" r="50.877"/>
		<circle style="opacity:0.1;fill:#FFFFFF;" cx="195.673" cy="418.119" r="50.877"/>
		<circle style="fill:#E14E70;" cx="193.518" cy="144.406" r="50.877"/>
		<circle style="fill:#F3F08E;" cx="193.518" cy="275.995" r="50.877"/>
		<circle style="fill:#79C06F;" cx="193.518" cy="414.243" r="50.877"/>
		<path style="fill:#666767;" d="M255.993,62.475v2.968H131.042v-2.968c0-4.295,0.468-8.512,1.25-12.573
			C138.149,21.398,163.295,0,193.518,0c17.259,0,32.878,7.029,44.202,18.274c8.512,8.512,14.525,19.367,17.024,31.628
			C255.524,53.964,255.993,58.18,255.993,62.475z"/>
		<path style="fill:#444F46;" d="M243.181,52.598h-99.326v0c0-21.887,17.908-39.794,39.794-39.794h19.759
			c21.875,0,39.773,17.898,39.773,39.773V52.598z"/>
		<path style="opacity:0.2;fill:#040000;" d="M244.392,275.992c0,3.311-0.311,6.518-0.931,9.647
			c-4.5-23.484-25.166-41.227-49.944-41.227c-24.803,0-45.443,17.743-49.944,41.227c-0.62-3.129-0.931-6.337-0.931-9.647
			c0-28.088,22.76-50.874,50.874-50.874C221.606,225.118,244.392,247.904,244.392,275.992z"/>
		<path style="opacity:0.2;fill:#040000;" d="M244.392,414.24c0,3.311-0.311,6.518-0.931,9.647
			c-4.5-23.484-25.166-41.227-49.944-41.227c-24.803,0-45.443,17.743-49.944,41.227c-0.62-3.129-0.931-6.336-0.931-9.647
			c0-28.088,22.76-50.874,50.874-50.874C221.606,363.366,244.392,386.152,244.392,414.24z"/>
		<path style="opacity:0.26;fill:#040000;" d="M244.392,144.403c0,3.311-0.311,6.518-0.931,9.647
			c-4.5-23.484-25.166-41.227-49.944-41.227c-24.803,0-45.443,17.743-49.944,41.227c-0.62-3.129-0.931-6.337-0.931-9.647
			c0-28.088,22.76-50.874,50.874-50.874C221.606,93.529,244.392,116.315,244.392,144.403z"/>
	</g>
	<path style="opacity:0.2;" d="M78.838,369.714v8.331h-8.331L5.232,443.32l75.862,44.241C86.159,501.769,99.595,512,115.542,512
		h154.033c15.947,0,29.383-10.231,34.447-24.439l82.092-47.874v-61.642h-79.836V341.3l79.836-46.558V233.1h-79.836v-36.744
		l79.836-46.558V88.155h-25.717L78.838,369.714z"/>
</g>
</svg>