<?xml version="1.0" encoding="iso-8859-1"?>
<!-- Uploaded to: SVG Repo, www.svgrepo.com, Generator: SVG Repo Mixer Tools -->
<svg height="800px" width="800px" version="1.1" id="Layer_1" xmlns="http://www.w3.org/2000/svg" xmlns:xlink="http://www.w3.org/1999/xlink" 
	 viewBox="0 0 497.6 497.6" xml:space="preserve">
<path style="fill:#7AA7C1;" d="M323.2,328.8V138.4c0-8-6.4-14.4-14.4-14.4s-14.4,6.4-14.4,14.4v190.4c-16.8,0.8-29.6,14.4-29.6,31.2
	v106.4c0,16.8,13.6,31.2,31.2,31.2h26.4c16.8,0,31.2-13.6,31.2-31.2V360C353.6,343.2,340,329.6,323.2,328.8z M324.8,466.4
	c0,1.6-0.8,2.4-2.4,2.4H296c-1.6,0-2.4-0.8-2.4-2.4V360c0-1.6,0.8-2.4,2.4-2.4h26.4c1.6,0,2.4,0.8,2.4,2.4V466.4z"/>
<path style="fill:#5F91AA;" d="M323.2,328.8v-28V138.4c0-8-6.4-14.4-14.4-14.4s-14.4,6.4-14.4,14.4v163.2v27.2
	c-16.8,0.8-29.6,14.4-29.6,31.2v78.4c0,16.8,13.6,31.2,31.2,31.2h26.4c16.8,0,31.2-13.6,31.2-31.2V360
	C353.6,343.2,340,329.6,323.2,328.8z M324.8,360v78.4v28c0,1.6-0.8,2.4-2.4,2.4H296c-1.6,0-2.4-0.8-2.4-2.4v-28V360v-28
	c0-1.6,0.8-2.4,2.4-2.4h26.4c1.6,0,2.4,0.8,2.4,2.4V360z"/>
<path style="fill:#094FDB;" d="M376.8,272.8c0,16-12.8,28.8-28.8,28.8h-73.6c-16,0-28.8-12.8-28.8-28.8v-20
	c0-16,12.8-28.8,28.8-28.8H348c16,0,28.8,12.8,28.8,28.8V272.8z"/>
<path style="fill:#118DEA;" d="M304,247.2H123.2c-39.2,0-70.4-32-70.4-70.4V75.2c0-39.2,32-70.4,70.4-70.4h180
	c63.2,0,113.6,28,110.4,135.2l-1.6,36.8C412.8,215.2,343.2,247.2,304,247.2z M123.2,38.4c-20.8,0-36.8,16.8-36.8,36.8L156.8,176
	c0,20.8-54.4,36.8-33.6,36.8h180C324,212.8,340,196,340,176V75.2c0-20.8-16.8-36.8-36.8-36.8C303.2,38.4,123.2,38.4,123.2,38.4z"/>
<g>
	<path style="fill:#1FCEFC;" d="M123.2,4.8h180C364,4.8,413.6,31.2,413.6,128C414.4,27.2,364.8,0,303.2,0h-180
		C84,0,52.8,32,52.8,70.4v4C52.8,36,84.8,4.8,123.2,4.8z"/>
	<path style="fill:#1FCEFC;" d="M97.6,105.6c0-0.8,39.2-8.8,39.2-9.6L87.2,71.2c0,1.6,0,2.4,0,4L97.6,105.6z"/>
</g>
<path style="fill:#118DEA;" d="M444.8,184c0-42.4-20.8-76-37.6-76c-3.2,0-6.4,0.8-10.4,3.2c-9.6-8.8-22.4-14.4-36.8-14.4H83.2
	c-29.6,0-30.4,24-30.4,53.6v67.2c0,29.6,24,53.6,53.6,53.6H392c13.6,0,19.2-4.8,21.6-12.8C428.8,251.2,444.8,220.8,444.8,184z"/>
<path style="fill:#0772DD;" d="M97.6,198.4c-16.8,0-32.8-6.4-44.8-16v35.2c0,29.6,24,53.6,53.6,53.6H392c13.6,0,19.2-4.8,21.6-12.8
	c13.6-6.4,27.2-29.6,30.4-60H97.6z"/>
<g>
	<path style="fill:#1FCEFC;" d="M129.6,178.4c0,1.6-1.6,3.2-3.2,3.2h-40c-1.6,0-3.2-1.6-3.2-3.2l0,0c0-1.6,1.6-3.2,3.2-3.2h40
		C128,175.2,129.6,176.8,129.6,178.4L129.6,178.4z"/>
	<path style="fill:#1FCEFC;" d="M129.6,194.4c0,1.6-1.6,3.2-3.2,3.2h-40c-1.6,0-3.2-1.6-3.2-3.2l0,0c0-1.6,1.6-3.2,3.2-3.2h40
		C128,192,129.6,192.8,129.6,194.4L129.6,194.4z"/>
	<path style="fill:#1FCEFC;" d="M129.6,211.2c0,1.6-1.6,3.2-3.2,3.2h-40c-1.6,0-3.2-1.6-3.2-3.2l0,0c0-1.6,1.6-3.2,3.2-3.2h40
		C128,208,129.6,208.8,129.6,211.2L129.6,211.2z"/>
	<path style="fill:#1FCEFC;" d="M437.6,142.4H196c-6.4,0-11.2,4.8-11.2,11.2s4.8,11.2,11.2,11.2h247.2
		C442.4,156.8,440,149.6,437.6,142.4z"/>
</g>
</svg>