<?xml version="1.0" encoding="iso-8859-1"?>
<!-- Uploaded to: SVG Repo, www.svgrepo.com, Generator: SVG Repo Mixer Tools -->
<svg height="800px" width="800px" version="1.1" id="Layer_1" xmlns="http://www.w3.org/2000/svg" xmlns:xlink="http://www.w3.org/1999/xlink" 
	 viewBox="0 0 496 496" xml:space="preserve">
<path style="fill:#83B0B5;" d="M347.2,244c0,6.4-5.6,12-12,12H160c-6.4,0-12-5.6-12-12V42.4c0-6.4,5.6-12,12-12h176
	c6.4,0,12,5.6,12,12V244H347.2z"/>
<path style="fill:#72A2A5;" d="M160,30.4h176c6.4,0,12,5.6,12,12V244c0,6.4-5.6,12-12,12"/>
<path style="fill:#A3D0D1;" d="M176,240.8V30.4h-16c-6.4,0-12,5.6-12,12V244c0,6.4,5.6,12,12,12h28C181.6,256,176,248.8,176,240.8z"
	/>
<polygon style="fill:#CBEBEF;" points="490.4,412.8 5.6,412.8 152,228 344,228 "/>
<polygon style="fill:#B1D7DD;" points="490.4,412.8 5.6,412.8 176.8,228 344,228 "/>
<polygon style="fill:#A3D0D1;" points="490.4,412.8 89.6,412.8 176.8,228 344,228 "/>
<polyline style="fill:#91C4C4;" points="177.6,228 344,228 490.4,412.8 "/>
<path style="fill:#83B0B5;" d="M496,450.4c0,8.8-7.2,15.2-15.2,15.2H15.2c-8.8,0-15.2-7.2-15.2-15.2v-25.6c0-8.8,7.2-15.2,15.2-15.2
	h465.6c8.8,0,15.2,7.2,15.2,15.2L496,450.4L496,450.4z"/>
<path style="fill:#A3D0D1;" d="M92,409.6H15.2c-8,0-15.2,6.4-15.2,15.2v25.6c0,8.8,7.2,15.2,15.2,15.2H92V409.6z"/>
<path style="fill:#137D8E;" d="M421.6,434.4c0,10.4-8,18.4-18.4,18.4s-18.4-8-18.4-18.4s8-20,18.4-20S421.6,424,421.6,434.4z"/>
<path style="fill:#72A2A5;" d="M421.6,434.4c0,10.4-8,27.2-18.4,27.2s-18.4-16.8-18.4-27.2c0-10.4,8-17.6,18.4-17.6
	S421.6,424,421.6,434.4z"/>
<circle style="fill:#185B6B;" cx="403.2" cy="434.4" r="18.4"/>
<path style="fill:#073B44;" d="M416,420.8c7.2,7.2,7.2,19.2,0,26.4c-7.2,7.2-19.2,7.2-26.4,0"/>
<circle style="fill:#B8D7E0;" cx="412.8" cy="424.8" r="1.6"/>
<path style="fill:#137D8E;" d="M470.4,434.4c0,10.4-8,18.4-18.4,18.4s-18.4-8-18.4-18.4s8-20,18.4-20S470.4,424,470.4,434.4z"/>
<path style="fill:#72A2A5;" d="M470.4,434.4c0,10.4-8,27.2-18.4,27.2s-18.4-16.8-18.4-27.2c0-10.4,8-17.6,18.4-17.6
	S470.4,424,470.4,434.4z"/>
<circle style="fill:#185B6B;" cx="452" cy="434.4" r="18.4"/>
<path style="fill:#073B44;" d="M465.6,420.8c7.2,7.2,7.2,19.2,0,26.4c-7.2,7.2-19.2,7.2-26.4,0"/>
<circle style="fill:#B8D7E0;" cx="461.6" cy="424.8" r="1.6"/>
<g>
	<path style="fill:#628589;" d="M112.8,424.8c-0.8,0-1.6-0.8-1.6-1.6l0,0c0-0.8,0.8-1.6,1.6-1.6H128c0.8,0,1.6,0.8,1.6,1.6l0,0
		c0,0.8-0.8,1.6-1.6,1.6H112.8z"/>
	<path style="fill:#628589;" d="M112.8,439.2c-0.8,0-1.6-0.8-1.6-1.6l0,0c0-0.8,0.8-1.6,1.6-1.6H128c0.8,0,1.6,0.8,1.6,1.6l0,0
		c0,0.8-0.8,1.6-1.6,1.6H112.8z"/>
	<path style="fill:#628589;" d="M112.8,454.4c-0.8,0-1.6-0.8-1.6-1.6l0,0c0-0.8,0.8-1.6,1.6-1.6H128c0.8,0,1.6,0.8,1.6,1.6l0,0
		c0,0.8-0.8,1.6-1.6,1.6H112.8z"/>
	<path style="fill:#628589;" d="M312,179.2c-0.8,0-1.6-0.8-1.6-1.6l0,0c0-0.8,0.8-1.6,1.6-1.6h14.4c0.8,0,1.6,0.8,1.6,1.6l0,0
		c0,0.8-0.8,1.6-1.6,1.6H312z"/>
	<path style="fill:#628589;" d="M312,194.4c-0.8,0-1.6-0.8-1.6-1.6l0,0c0-0.8,0.8-1.6,1.6-1.6h14.4c0.8,0,1.6,0.8,1.6,1.6l0,0
		c0,0.8-0.8,1.6-1.6,1.6H312z"/>
	<path style="fill:#628589;" d="M312,208.8c-0.8,0-1.6-0.8-1.6-1.6l0,0c0-0.8,0.8-1.6,1.6-1.6h14.4c0.8,0,1.6,0.8,1.6,1.6l0,0
		c0,0.8-0.8,1.6-1.6,1.6H312z"/>
</g>
</svg>